<?xml version="1.0" encoding="UTF-8" standalone="no"?>
<svg
   xmlns:dc="http://purl.org/dc/elements/1.1/"
   xmlns:cc="http://creativecommons.org/ns#"
   xmlns:rdf="http://www.w3.org/1999/02/22-rdf-syntax-ns#"
   xmlns:svg="http://www.w3.org/2000/svg"
   xmlns="http://www.w3.org/2000/svg"
   xmlns:sodipodi="http://sodipodi.sourceforge.net/DTD/sodipodi-0.dtd"
   xmlns:inkscape="http://www.inkscape.org/namespaces/inkscape"
   version="1.1"
   x="0px"
   y="0px"
   viewBox="0 0 100 100"
   xml:space="preserve"
   id="svg8"
   sodipodi:docname="line.svg"
   width="100"
   height="100"
   inkscape:version="0.92.3 (2405546, 2018-03-11)"><metadata
     id="metadata14"><rdf:RDF><cc:Work
         rdf:about=""><dc:format>image/svg+xml</dc:format><dc:type
           rdf:resource="http://purl.org/dc/dcmitype/StillImage" /><dc:title></dc:title></cc:Work></rdf:RDF></metadata><defs
     id="defs12" /><sodipodi:namedview
     pagecolor="#ffffff"
     bordercolor="#666666"
     borderopacity="1"
     objecttolerance="10"
     gridtolerance="10"
     guidetolerance="10"
     inkscape:pageopacity="0"
     inkscape:pageshadow="2"
     inkscape:window-width="1920"
     inkscape:window-height="1027"
     id="namedview10"
     showgrid="false"
     inkscape:pagecheckerboard="true"
     inkscape:zoom="3.776"
     inkscape:cx="-60.838734"
     inkscape:cy="68.266053"
     inkscape:window-x="1912"
     inkscape:window-y="22"
     inkscape:window-maximized="1"
     inkscape:current-layer="svg8" /><path
     d="m 16.289812,88.311984 12.345239,-17.805042 5.21809,7.563204 c 0.636354,0.945401 1.654518,1.575667 2.672682,1.418101 1.018164,-0.157568 1.909057,-0.787834 2.54541,-1.733235 l 12.090698,-23.004745 7.508961,15.599108 c 0.636351,1.260533 1.654516,1.890802 2.79995,1.890802 0,0 0,0 0,0 1.145435,0 2.163599,-0.787835 2.799952,-2.048369 L 89.215813,16.776681 C 90.1067,14.88588 89.597626,12.364812 88.07038,11.261845 86.543133,10.158878 84.506805,10.789144 83.615911,12.679946 L 61.343572,60.42267 54.089153,45.138696 c -0.509082,-1.260534 -1.527247,-1.890801 -2.67268,-1.890801 0,0 0,0 -0.127272,0 -1.145434,0 -2.163598,0.630267 -2.67268,1.733234 L 36.01674,68.931274 31.180461,61.840771 c -0.636352,-0.945401 -1.527246,-1.418101 -2.41814,-1.418101 -0.890894,0 -1.781786,0.4727 -2.418139,1.418101 l -15.01792,21.271511 c -1.145435,1.733234 -1.018164,4.254302 0.381811,5.672402 0.636353,0.630267 1.399976,0.945401 2.036328,0.945401 0.890894,0 1.909058,-0.4727 2.545411,-1.418101 z"
     id="path2"
     style="fill:#ffffff;stroke-width:1.4161073"
     inkscape:connector-curvature="0" /></svg>