<?xml version="1.0" encoding="UTF-8" standalone="no"?>
<svg
   xmlns:dc="http://purl.org/dc/elements/1.1/"
   xmlns:cc="http://creativecommons.org/ns#"
   xmlns:rdf="http://www.w3.org/1999/02/22-rdf-syntax-ns#"
   xmlns:svg="http://www.w3.org/2000/svg"
   xmlns="http://www.w3.org/2000/svg"
   xmlns:sodipodi="http://sodipodi.sourceforge.net/DTD/sodipodi-0.dtd"
   xmlns:inkscape="http://www.inkscape.org/namespaces/inkscape"
   version="1.1"
   x="0px"
   y="0px"
   viewBox="0 0 100 100"
   xml:space="preserve"
   id="svg8"
   sodipodi:docname="nonav.svg"
   width="100"
   height="100"
   inkscape:version="0.92.3 (2405546, 2018-03-11)"><metadata
   id="metadata14"><rdf:RDF><cc:Work
       rdf:about=""><dc:format>image/svg+xml</dc:format><dc:type
         rdf:resource="http://purl.org/dc/dcmitype/StillImage" /><dc:title></dc:title></cc:Work></rdf:RDF></metadata><defs
   id="defs12" /><sodipodi:namedview
   pagecolor="#ffffff"
   bordercolor="#666666"
   borderopacity="1"
   objecttolerance="10"
   gridtolerance="10"
   guidetolerance="10"
   inkscape:pageopacity="0"
   inkscape:pageshadow="2"
   inkscape:window-width="1920"
   inkscape:window-height="1027"
   id="namedview10"
   showgrid="false"
   inkscape:pagecheckerboard="true"
   inkscape:zoom="5.3400704"
   inkscape:cx="57.305303"
   inkscape:cy="44.228099"
   inkscape:window-x="1912"
   inkscape:window-y="22"
   inkscape:window-maximized="1"
   inkscape:current-layer="svg8" /><g
   id="g6"
   transform="matrix(0.92304064,0,0,0.90197181,-16.521216,-16.669903)"
   style="fill:#ffffff;fill-opacity:1"><polygon
     points="21.5,50 49.2,77.7 50.6,76.3 24.3,50 50.6,23.7 49.2,22.3 "
     id="polygon2"
     style="fill:#ffffff;fill-opacity:1" /><rect
     x="34"
     y="49"
     width="46"
     height="2"
     id="rect4"
     style="fill:#ffffff;fill-opacity:1" /></g><g
   transform="matrix(0.54629906,0,0,0.54883226,44.762143,-477.60343)"
   id="g4"
   style="fill:#ffffff;fill-opacity:1"><path
     style="color:#000000;text-indent:0;text-transform:none;direction:ltr;baseline-shift:baseline;display:inline;overflow:visible;visibility:visible;fill:#ffffff;fill-opacity:1;stroke:none;enable-background:accumulate"
     d="m 46.919487,959.362 c -23.6761,0 -42.9374998,19.29017 -42.9374998,43 0,23.6983 19.2456998,42.9813 42.9061998,43.0001 a 3.0003,3.0003 0 1 0 0,-6 c -20.4137,-0.016 -36.9061998,-16.5371 -36.9061998,-37.0001 0,-20.47297 16.5097998,-37 36.9374998,-37 15.7245,0 29.1309,9.79531 34.4687,23.625 l -6.8124,-3.96875 a 3.0041447,3.0041447 0 1 0 -3.0314,5.1875 l 12.5937,7.37501 a 3.0003,3.0003 0 0 0 4.1563,-1.1875 l 7.3437,-13.68751 a 3.0003,3.0003 0 0 0 -3,-4.4375 3.0003,3.0003 0 0 0 -2.3124,1.625 l -3.5313,6.5625 c -6.3191,-15.87456 -21.8016,-27.09375 -39.8749,-27.09375 z"
     marker="none"
     visibility="visible"
     display="inline"
     overflow="visible"
     id="path2-6"
     inkscape:connector-curvature="0" /></g><path
   d="m 49.492316,8.9921602 c -21.295742,0 -38.636111,17.8866698 -38.636111,39.8533258 0,21.966653 17.340369,39.853327 38.636111,39.853327 21.295742,0 38.636116,-17.886674 38.636116,-39.853327 0,-21.966656 -17.340374,-39.8533258 -38.636116,-39.8533258 z m 0,7.4724988 c 7.36984,0 14.1215,2.645264 19.470186,7.00671 L 24.893185,68.929073 c -4.228238,-5.514707 -6.792709,-12.479074 -6.792709,-20.083587 0,-17.926525 14.012833,-32.380827 31.39184,-32.380827 z m 24.601545,12.299734 c 4.228241,5.514699 6.792715,12.479073 6.792715,20.083584 0,17.926525 -14.012837,32.380828 -31.391845,32.380828 -7.369838,0 -14.1215,-2.645266 -19.470184,-7.006715 z"
   id="path2-0"
   inkscape:connector-curvature="0"
   style="fill:#ff0000;stroke-width:2.45249987" /><text
   xml:space="preserve"
   style="font-style:normal;font-weight:normal;font-size:75.16681671px;line-height:1.25;font-family:sans-serif;letter-spacing:0px;word-spacing:0px;fill:#000000;fill-opacity:1;stroke:none;stroke-width:1.87917042"
   x="71.139938"
   y="15.747066"
   id="text818"><tspan
     sodipodi:role="line"
     id="tspan816"
     x="71.139938"
     y="84.324036"
     style="stroke-width:1.87917042" /></text>

</svg>