<?xml version="1.0" encoding="UTF-8" standalone="no"?>
<svg
   xmlns:dc="http://purl.org/dc/elements/1.1/"
   xmlns:cc="http://creativecommons.org/ns#"
   xmlns:rdf="http://www.w3.org/1999/02/22-rdf-syntax-ns#"
   xmlns:svg="http://www.w3.org/2000/svg"
   xmlns="http://www.w3.org/2000/svg"
   xmlns:sodipodi="http://sodipodi.sourceforge.net/DTD/sodipodi-0.dtd"
   xmlns:inkscape="http://www.inkscape.org/namespaces/inkscape"
   viewBox="0 0 100 99.999997"
   x="0px"
   y="0px"
   version="1.1"
   id="svg16"
   sodipodi:docname="play.svg"
   width="100"
   height="100"
   inkscape:version="0.92.3 (2405546, 2018-03-11)">
  <metadata
     id="metadata22">
    <rdf:RDF>
      <cc:Work
         rdf:about="">
        <dc:format>image/svg+xml</dc:format>
        <dc:type
           rdf:resource="http://purl.org/dc/dcmitype/StillImage" />
        <dc:title>play pause</dc:title>
      </cc:Work>
    </rdf:RDF>
  </metadata>
  <defs
     id="defs20" />
  <sodipodi:namedview
     pagecolor="#ffffff"
     bordercolor="#666666"
     borderopacity="1"
     objecttolerance="10"
     gridtolerance="10"
     guidetolerance="10"
     inkscape:pageopacity="0"
     inkscape:pageshadow="2"
     inkscape:window-width="1920"
     inkscape:window-height="1027"
     id="namedview18"
     showgrid="false"
     inkscape:pagecheckerboard="true"
     inkscape:zoom="4.0329453"
     inkscape:cx="-23.679964"
     inkscape:cy="26.575001"
     inkscape:window-x="1912"
     inkscape:window-y="22"
     inkscape:window-maximized="1"
     inkscape:current-layer="svg16" />
  <title
     id="title2">play pause</title>
  <g
     data-name="Calque 2"
     id="g10"
     transform="matrix(1.1738464,0,0,1.4894211,8.9264866,19.326689)"
     style="fill:#ffffff">
    <g
       id="g8"
       style="fill:#ffffff">
      <rect
         x="56.119999"
         width="14.3"
         height="42.52"
         rx="2.27"
         ry="2.27"
         id="rect4"
         y="0"
         style="fill:#ffffff" />
      <path
         d="M 47.5,0 H 37.74 A 2.27,2.27 0 0 0 35.47,2.27 V 20.15 A 2.24,2.24 0 0 0 34.6,19.28 L 3.37,1.88 A 2.27,2.27 0 0 0 0,3.86 v 34.8 a 2.27,2.27 0 0 0 3.37,2 L 34.6,23.24 a 2.24,2.24 0 0 0 0.87,-0.87 v 17.88 a 2.27,2.27 0 0 0 2.27,2.27 h 9.76 a 2.27,2.27 0 0 0 2.27,-2.27 v -38 A 2.27,2.27 0 0 0 47.5,0 Z"
         id="path6"
         inkscape:connector-curvature="0"
         style="fill:#ffffff" />
    </g>
  </g>
</svg>
