<?xml version="1.0" encoding="UTF-8" standalone="no"?>
<svg
   xmlns:dc="http://purl.org/dc/elements/1.1/"
   xmlns:cc="http://creativecommons.org/ns#"
   xmlns:rdf="http://www.w3.org/1999/02/22-rdf-syntax-ns#"
   xmlns:svg="http://www.w3.org/2000/svg"
   xmlns="http://www.w3.org/2000/svg"
   xmlns:sodipodi="http://sodipodi.sourceforge.net/DTD/sodipodi-0.dtd"
   xmlns:inkscape="http://www.inkscape.org/namespaces/inkscape"
   version="1.1"
   x="0px"
   y="0px"
   viewBox="0 0 100 100"
   enable-background="new 0 0 100 100"
   xml:space="preserve"
   id="svg10"
   sodipodi:docname="prev.svg"
   width="100"
   height="100"
   inkscape:version="0.92.3 (2405546, 2018-03-11)"><metadata
     id="metadata16"><rdf:RDF><cc:Work
         rdf:about=""><dc:format>image/svg+xml</dc:format><dc:type
           rdf:resource="http://purl.org/dc/dcmitype/StillImage" /><dc:title></dc:title></cc:Work></rdf:RDF></metadata><defs
     id="defs14" /><sodipodi:namedview
     pagecolor="#ffffff"
     bordercolor="#666666"
     borderopacity="1"
     objecttolerance="10"
     gridtolerance="10"
     guidetolerance="10"
     inkscape:pageopacity="0"
     inkscape:pageshadow="2"
     inkscape:window-width="1920"
     inkscape:window-height="1027"
     id="namedview12"
     showgrid="false"
     inkscape:pagecheckerboard="true"
     inkscape:zoom="1.888"
     inkscape:cx="-75.794492"
     inkscape:cy="62.5"
     inkscape:window-x="1912"
     inkscape:window-y="22"
     inkscape:window-maximized="1"
     inkscape:current-layer="svg10" /><path
     d="m 29.908777,32.742373 17.317598,-12.908 c 5.088088,-3.79 9.247013,-2.389 9.247013,3.113 v 4.196 10.03 c 0,2.293 1.733417,2.878 3.85048,1.3 l 15.201809,-11.33 9.807825,-7.31 c 5.081715,-3.789 9.239366,-2.388 9.239366,3.114 v 59.191 c 0,5.498 -4.157651,6.9 -9.240641,3.111 l -9.807824,-7.311 -15.20181,-11.326 c -2.115788,-1.577 -3.850479,-0.993 -3.850479,1.296 v 10.032 4.199 c 0,5.498 -4.158926,6.899 -9.247014,3.11 l -17.318872,-12.91 -21.9379175,-16.353 c -2.545318,-1.896 -2.545318,-4.995 0,-6.89 z"
     id="path2"
     inkscape:connector-curvature="0"
     style="fill:#ffd700;stroke-width:1.12896907" /></svg>